<svg width="197" height="71" viewBox="0 0 197 71" fill="none" xmlns="http://www.w3.org/2000/svg">
<path d="M35.2656 38.9844C35.2656 44.0365 33.9375 48.5938 31.2812 52.6562C27.8958 57.8125 23.1042 60.3906 16.9062 60.3906C14.6667 60.3906 12.401 59.9219 10.1094 58.9844C7.40104 57.9948 6.04688 56.7708 6.04688 55.3125V10.7812C6.04688 7.23958 4.51042 5.46875 1.4375 5.46875C0.96875 5.46875 0.604167 5.49479 0.34375 5.54688V4.0625C2.58333 3.48958 5.91667 2.29167 10.3438 0.46875V29.0625L10.9688 27.8906C11.8021 26.276 13.0521 24.7396 14.7188 23.2812C17.1667 21.1458 19.5885 20.0781 21.9844 20.0781C26.3594 20.0781 29.7448 22.1094 32.1406 26.1719C34.224 29.6615 35.2656 33.9323 35.2656 38.9844ZM30.1875 41.7969C30.1875 30.3385 26.5156 24.6094 19.1719 24.6094C17.401 24.6094 15.5521 25.5208 13.625 27.3438C11.4375 29.3229 10.3438 31.5625 10.3438 34.0625V52.7344C10.3438 54.1927 11.4896 55.4948 13.7812 56.6406C15.7083 57.526 17.375 57.9688 18.7812 57.9688C22.8958 57.9688 25.9688 56.0156 28 52.1094C29.4583 49.2969 30.1875 45.8594 30.1875 41.7969ZM60.4219 4.375C60.4219 6.82292 59.3542 8.04688 57.2188 8.04688C56.2292 8.04688 55.4479 7.60417 54.875 6.71875C54.4062 5.98958 54.1719 5.20833 54.1719 4.375C54.1719 3.64583 54.4323 2.86458 54.9531 2.03125C55.474 1.25 56.2292 0.859375 57.2188 0.859375C58.1042 0.859375 58.8594 1.19792 59.4844 1.875C60.1094 2.60417 60.4219 3.4375 60.4219 4.375ZM66.6719 59.7656H48.7812V58.4375C51.4375 58.3333 53.2344 57.8125 54.1719 56.875C55.2656 55.7292 55.8125 53.4635 55.8125 50.0781V31.7969C55.8125 27.7865 54.4844 25.7812 51.8281 25.7812C51.2031 25.7812 50.3438 25.9115 49.25 26.1719V24.7656C51.6979 23.9844 55.3177 22.526 60.1094 20.3906V50.0781C60.1094 53.099 60.5521 55.2083 61.4375 56.4062C62.2708 57.5521 64.0156 58.2292 66.6719 58.4375V59.7656ZM100.422 4.375C100.422 6.71875 99.3542 7.89062 97.2188 7.89062C96.2292 7.89062 95.4479 7.47396 94.875 6.64062C94.4062 5.91146 94.1719 5.15625 94.1719 4.375C94.1719 3.64583 94.4583 2.83854 95.0312 1.95312C95.5521 1.11979 96.2812 0.703125 97.2188 0.703125C98.1042 0.703125 98.8594 1.06771 99.4844 1.79688C100.109 2.57812 100.422 3.4375 100.422 4.375ZM100.109 53.75C100.109 59.8438 99.3281 64.0625 97.7656 66.4062C95.9948 69.0104 92.7396 70.3125 88 70.3125C86.0729 70.3125 84.4323 69.8958 83.0781 69.0625C81.6719 68.3333 80.9688 67.2656 80.9688 65.8594C80.9688 64.1406 81.776 63.4115 83.3906 63.6719C84.4323 63.8802 85.7083 64.6094 87.2188 65.8594C88.5208 67.0573 89.6406 67.6562 90.5781 67.6562C92.6615 67.6562 94.0938 66.6406 94.875 64.6094C95.5 62.9427 95.8125 60.2604 95.8125 56.5625V30.8594C95.8125 26.849 94.5365 24.8438 91.9844 24.8438C91.6719 24.8438 90.7083 24.974 89.0938 25.2344V23.75C91.5417 23.0208 95.2135 21.5885 100.109 19.4531V53.75ZM154.641 39.8438C154.641 45.5208 153.312 50.2604 150.656 54.0625C147.583 58.2812 143.365 60.3906 138 60.3906C133.26 60.3906 129.302 58.4375 126.125 54.5312C123.052 50.625 121.516 45.7292 121.516 39.8438C121.516 34.2708 122.974 29.5573 125.891 25.7031C129.016 21.6927 132.974 19.6875 137.766 19.6875C142.766 19.6875 146.854 21.4844 150.031 25.0781C153.104 28.724 154.641 33.6458 154.641 39.8438ZM149.719 42.2656C149.719 36.4323 148.547 31.6146 146.203 27.8125C143.911 24.0625 140.917 22.1875 137.219 22.1875C134.302 22.1875 131.906 23.2031 130.031 25.2344C127.792 27.6302 126.646 31.0417 126.594 35.4688C126.49 41.1979 127.375 46.1198 129.25 50.2344C131.542 55.2865 134.849 57.8125 139.172 57.8125C141.828 57.8125 144.042 56.875 145.812 55C148.417 52.3438 149.719 48.099 149.719 42.2656ZM196.594 56.6406C194.615 57.1615 191.542 58.3333 187.375 60.1562V51.25C186.125 52.8125 184.51 54.6875 182.531 56.875C179.823 59.1146 177.193 60.3125 174.641 60.4688C172.714 60.4688 171.073 59.7396 169.719 58.2812C167.844 56.3021 166.906 53.2812 166.906 49.2188V28.125C166.906 24.0104 165.005 21.849 161.203 21.6406V20.4688H170.812V48.9062C170.812 53.6979 173 56.0938 177.375 56.0938C179.406 56.0938 181.906 54.6354 184.875 51.7188C186.333 50.3646 187.062 48.5417 187.062 46.25V28.2031C187.062 26.224 186.646 24.7917 185.812 23.9062C184.823 22.7604 183.052 22.1094 180.5 21.9531V20.4688H190.969V49.4531C190.969 53.2031 192.844 55.0781 196.594 55.0781V56.6406Z" fill="#FFFEFE"/>
</svg>
